PathFileType	4	(X/Y/Z)	T:\Spectrum_Optical_Capture\Spectrum_Demo_10_05_01_TRUECOMBAT\07_Smooth_Trc\TC_Jump_1.trc
DataRate	CameraRate	NumFrames	NumMarkers	Units	OrigDataRate	OrigDataStartFrame	OrigNumFrames
60.0	60.0	       6	46	mm	60.0	571	       913
Frame#	Time	HeadTop			ForeHead			LFrontHead			RFrontHead			TopSpine			Sternum			Scapula			LFShoulder			LShoulder			LBicep			LOuterElbow			LHand			LWristPinky			LWristThumb			RFShoulder			RShoulder			RBicep			ROuterElbow			RHand			RWristPinky			RWristThumb			MiddleBack			LowerBack			Root			Pelvis			LBackWaist			RBackWaist			LFrontWaist			RFrontWaist			Bellymarker			LThigh			LOuterKnee			LAnkle			LHeel			LOuterMeta			LToe			RThigh			ROuterKnee			RAnkle			RHeel			ROuterMeta			RToe			Floor1			Floor2			Floor3			Floor4			
		X1	Y1	Z1	X2	Y2	Z2	X3	Y3	Z3	X4	Y4	Z4	X5	Y5	Z5	X6	Y6	Z6	X7	Y7	Z7	X8	Y8	Z8	X9	Y9	Z9	X10	Y10	Z10	X11	Y11	Z11	X12	Y12	Z12	X13	Y13	Z13	X14	Y14	Z14	X15	Y15	Z15	X16	Y16	Z16	X17	Y17	Z17	X18	Y18	Z18	X19	Y19	Z19	X20	Y20	Z20	X21	Y21	Z21	X22	Y22	Z22	X23	Y23	Z23	X24	Y24	Z24	X25	Y25	Z25	X26	Y26	Z26	X27	Y27	Z27	X28	Y28	Z28	X29	Y29	Z29	X30	Y30	Z30	X31	Y31	Z31	X32	Y32	Z32	X33	Y33	Z33	X34	Y34	Z34	X35	Y35	Z35	X36	Y36	Z36	X37	Y37	Z37	X38	Y38	Z38	X39	Y39	Z39	X40	Y40	Z40	X41	Y41	Z41	X42	Y42	Z42	X43	Y43	Z43	X44	Y44	Z44	X45	Y45	Z45	X46	Y46	Z46	

571	9.500	2488.96973	1657.19336	3029.41211	2556.81055	1527.40491	3111.59619	2582.73682	1529.67249	2992.97534	2444.68530	1529.48169	3119.98047	2390.84277	1384.09753	2875.99951	2520.56885	1159.57080	3039.85547	2267.67578	1261.08862	2890.45483	2560.98145	1282.07056	2993.77588	2596.62061	1382.65527	2850.28198	2689.67114	1191.71082	2797.66016	2658.98779	1090.67798	2710.01270	2677.63794	1067.29407	2957.62988	2642.45435	1014.96783	3051.13818	2653.01929	1111.20398	3085.23755	2430.02100	1262.99329	3077.67285	2294.97241	1357.37817	3055.25732	2162.02588	1271.74890	2995.46631	2083.99585	1153.80981	2925.42188	2139.18823	944.23499	3064.04175	2161.46875	846.65033	3054.72461	2193.97729	839.50159	3145.32373	2376.86938	1303.35010	2837.15479	2370.92871	1179.74353	2817.84033	2362.70239	1067.70508	2808.35669	2506.06763	1096.03027	2752.17114	2476.85156	975.11292	2730.14478	2264.53711	971.06512	2919.58862	2581.02563	954.69135	2830.59033	2335.37085	959.54169	3044.06689	2536.42603	960.73834	3032.96826	2513.59058	699.50128	2693.53589	2483.61914	529.62360	2678.42114	2248.16846	317.08545	2460.66431	2138.24780	337.37708	2455.98560	2220.95068	213.27797	2407.20679	2230.30225	104.32042	2475.64966	2360.34644	729.00745	3098.30493	2382.28076	560.31744	3086.27393	2443.12305	165.47310	3123.77539	2461.67188	81.89129	3031.68188	2485.42236	52.28151	3189.08545	2597.25220	71.60220	3233.82080	4200.61572	32.66319	-4241.17822	-3734.32861	-12.84246	-4192.21680	-3782.25244	-15.91912	4947.96729	4163.77686	21.26846	4906.57422	
572	9.517	2502.20630	1652.24866	3055.50757	2570.19775	1521.50220	3136.26636	2595.78467	1524.89978	3017.80542	2457.86450	1523.93665	3145.07153	2402.99048	1375.74280	2898.81299	2537.75391	1155.64587	3063.36694	2281.97119	1249.16394	2914.11572	2576.75415	1279.17566	3017.35229	2609.28442	1377.50085	2870.92261	2702.67871	1186.47510	2816.85742	2670.77344	1086.68518	2728.98682	2699.54614	1045.16406	2975.59790	2666.30396	982.07904	3063.01294	2680.42798	1074.05151	3110.16943	2445.26660	1257.35095	3100.41528	2306.11548	1346.77100	3077.63501	2175.87598	1252.11694	3021.78223	2103.03418	1128.15002	2956.23926	2165.82935	925.57745	3101.86401	2191.40283	828.50336	3094.63574	2224.34473	824.46112	3185.82690	2389.98413	1294.31921	2860.32178	2386.84302	1170.18542	2841.64282	2380.93042	1057.63086	2833.11597	2522.57397	1087.90552	2776.14941	2497.27197	964.78113	2756.25708	2283.00830	962.87341	2944.40771	2600.57178	948.61865	2857.56909	2354.44263	953.57458	3070.30835	2555.94238	957.40729	3061.20728	2543.55591	687.75519	2729.22192	2520.72290	516.96637	2719.95313	2275.01685	338.30539	2499.89575	2165.76855	365.95432	2498.60132	2240.79126	241.29938	2440.82959	2245.70117	128.05495	2503.25024	2377.14355	719.76904	3123.06836	2399.95972	551.85657	3107.18701	2456.30811	156.93265	3133.38745	2474.18555	78.23042	3037.70630	2494.61938	46.07121	3194.52710	2607.41919	60.13585	3242.56348	4200.62939	32.67964	-4241.17822	-3734.35376	-12.81658	-4192.31738	-3782.33398	-15.94792	4948.05762	4163.87793	21.35393	4906.58740	
573	9.533	2515.15649	1645.85742	3080.59204	2583.35449	1514.30774	3160.00391	2608.92261	1518.95801	3041.54175	2471.00024	1516.72327	3169.09717	2414.89844	1364.98450	2920.85522	2555.17212	1149.00781	3086.37280	2296.40796	1234.68018	2938.03174	2592.57227	1273.12463	3038.85059	2621.96387	1369.86169	2889.88232	2714.56567	1177.73206	2835.03711	2681.14893	1078.84351	2747.61963	2722.45093	1019.93079	2991.14453	2693.14795	946.89532	3071.35986	2709.62646	1033.50024	3130.02734	2461.38623	1249.37012	3122.30713	2317.96899	1333.54041	3100.09033	2190.92456	1228.59863	3049.37549	2123.95483	1098.46179	2989.72925	2194.77075	903.31146	3141.87378	2221.90601	807.56873	3135.89771	2255.89282	805.49384	3227.82324	2403.04761	1282.49084	2883.52832	2401.86304	1157.96545	2864.96558	2398.98511	1045.13989	2857.73511	2538.84741	1076.75549	2800.18677	2517.00732	951.85938	2782.25562	2300.83276	954.55133	2969.06641	2619.61157	939.47650	2884.52246	2372.67896	946.36694	3096.17554	2574.53467	951.04712	3088.63086	2572.76489	675.24719	2764.44189	2558.46680	504.00723	2761.62305	2307.21973	355.09863	2542.95557	2199.40771	389.97430	2544.24609	2266.19214	263.46332	2480.48730	2265.22827	148.20950	2539.04419	2394.27881	709.75085	3147.69922	2417.52417	542.73126	3127.98755	2465.27466	147.89914	3137.71045	2480.67603	72.67595	3038.09814	2498.59204	41.72208	3194.98657	2612.03979	51.90717	3245.70923	4200.69922	32.71370	-4241.18848	-3734.35376	-12.76163	-4192.46875	-3782.42627	-15.95282	4948.18066	4163.88965	21.29354	4906.81152	
574	9.550	2527.92407	1638.97412	3104.42847	2596.34375	1506.77417	3182.81519	2622.18628	1512.65015	3064.32031	2484.14795	1508.89307	3191.87622	2427.00708	1353.22583	2942.49902	2572.92993	1140.72058	3109.38330	2310.96753	1219.15845	2962.06812	2608.54150	1264.90894	3058.90381	2635.20825	1360.79395	2907.84814	2725.74487	1166.56921	2852.68555	2690.37378	1068.39600	2766.38403	2745.72949	992.52692	3004.00903	2722.44971	911.17847	3076.08276	2740.01855	991.45801	3144.31030	2478.21069	1239.90784	3143.52710	2330.72949	1318.75110	3122.94946	2207.82837	1202.65820	3078.32129	2147.31738	1066.50012	3025.96411	2226.39258	879.15118	3183.76294	2253.36401	785.66992	3178.37964	2288.39795	784.08185	3270.83643	2416.34399	1269.49683	2906.69531	2416.52490	1144.36682	2887.90698	2416.85010	1031.70972	2881.79224	2555.12476	1064.01880	2824.21265	2536.25464	937.82111	2807.92065	2317.83154	947.31696	2992.65015	2637.85547	928.47101	2911.46655	2389.54639	939.10504	3120.92651	2591.50269	942.35309	3114.36084	2601.09253	663.02997	2799.33203	2596.65894	492.00616	2803.70410	2343.77393	366.50775	2588.99341	2237.84546	408.14291	2591.67432	2296.85107	278.63358	2525.36841	2289.56226	163.08281	2582.50464	2411.29224	700.25378	3171.84399	2434.80835	534.41486	3148.88086	2471.16089	140.68124	3139.53955	2483.05005	67.11978	3035.97363	2499.35498	39.51508	3193.23730	2612.96924	47.60196	3245.68140	4200.80469	32.75231	-4241.20410	-3734.33521	-12.72233	-4192.57080	-3782.47852	-15.93288	4948.27783	4163.82813	21.15204	4907.06592	
575	9.567	2540.67993	1632.50073	3126.95728	2609.37598	1499.82288	3204.78564	2635.57861	1506.66321	3086.33203	2497.32373	1501.49207	3213.43164	2439.74365	1342.13135	2964.06567	2590.82837	1132.10303	3132.59253	2325.63232	1204.56006	2985.82056	2624.90259	1256.00818	3078.46948	2649.46533	1351.63721	2925.76660	2736.66406	1154.57336	2870.21484	2698.52368	1057.15588	2785.62378	2768.65869	964.19653	3013.91260	2753.23315	876.65350	3076.93848	2770.47852	949.66986	3152.80688	2495.54468	1230.06055	3164.33154	2344.49365	1303.82947	3146.39087	2227.14087	1176.35010	3108.39209	2173.41895	1034.53491	3064.52026	2261.23975	855.49231	3226.96655	2286.79102	765.01837	3221.95605	2321.92944	762.67114	3314.49097	2430.06323	1257.30920	2929.52563	2431.39331	1131.19788	2910.53613	2434.37109	1018.85870	2904.66821	2571.50464	1051.48706	2848.07422	2555.22192	924.17285	2832.98950	2333.95288	941.65192	3014.35498	2655.01050	917.08728	2938.29248	2404.64307	932.83832	3143.85522	2606.41284	932.70325	3138.30444	2628.44556	652.16388	2834.22095	2635.11914	482.31284	2846.67847	2383.47778	372.28214	2637.24731	2279.51318	419.67920	2639.65234	2332.24341	286.35907	2574.49854	2319.04419	171.89519	2632.74658	2427.70093	692.77924	3195.04004	2451.42871	528.04413	3170.02515	2475.14600	136.78369	3141.54517	2483.38867	63.52507	3033.79590	2498.58032	38.84241	3191.19482	2612.17188	46.13924	3244.52344	4200.91699	32.78587	-4241.21338	-3734.31812	-12.73327	-4192.59229	-3782.47217	-15.90823	4948.30469	4163.70703	21.03538	4907.18994	
576	9.583	2553.55713	1627.05493	3148.32886	2622.64185	1494.07556	3226.10034	2649.03711	1501.40234	3107.71411	2510.44580	1495.23108	3233.96655	2453.45850	1333.11218	2985.62695	2608.39087	1124.46130	3155.87402	2340.42773	1192.78516	3008.83691	2641.68286	1247.94873	3098.34180	2664.92554	1343.63599	2944.54297	2747.70337	1143.50220	2887.91357	2705.83667	1047.16504	2805.36621	2790.48096	936.65845	3020.67554	2783.98511	844.93768	3073.76343	2799.99731	909.92444	3155.78174	2513.13696	1221.09998	3185.02808	2359.27295	1290.41479	3170.20361	2248.98462	1152.17065	3138.92285	2202.21802	1005.22968	3104.19385	2299.59839	835.28394	3270.47998	2323.06519	748.13696	3266.12891	2357.10547	744.63110	3358.42725	2444.38745	1247.60510	2951.65942	2446.87012	1120.37000	2932.77393	2451.47046	1008.02899	2925.94409	2588.18164	1040.88232	2871.57544	2574.03198	912.31506	2857.34448	2349.30908	937.14172	3034.06592	2671.17896	906.89233	2964.86499	2417.82178	928.10345	3164.62573	2619.38330	923.95343	3161.22754	2654.85229	643.71191	2869.40967	2673.59180	476.13904	2890.93677	2425.14355	372.64377	2687.08789	2322.70605	424.05093	2687.34937	2371.62231	286.74680	2626.78540	2353.89600	174.52835	2688.61230	2443.04541	687.92090	3217.01489	2466.66113	523.46967	3191.22046	2478.02588	135.98564	3144.89893	2483.03369	62.60024	3032.75171	2497.36938	38.90135	3189.81567	2611.10596	46.02154	3243.37891	4201.01904	32.81741	-4241.20752	-3734.31445	-12.78721	-4192.56641	-3782.41528	-15.89752	4948.24805	4163.54736	21.03280	4907.12354	
